# xmcd CD database file
#
# Track frame offsets:
#	150
#	11185
#	23527
#	40882
#	54937
#	67900
#	92282
#	110855
#	127707
#	142920
#	159697
#	175787
#
# Disc length: 2512 seconds
#
# Revision: 0
# Processed by: cddbd v1.5PL3 Copyright (c) Steve Scherf et al.
# Submitted via: CDex 1.51
#
DISCID=8c09ce0c
DTITLE=太田裕美 - 短編集
DYEAR=1975
DGENRE=JPop
TTITLE0=白い封筒
TTITLE1=太陽がいっぱい
TTITLE2=やさしい翼
TTITLE3=ねぇ・・・！
TTITLE4=たんぽぽ
TTITLE5=回転木馬
TTITLE6=すれちがい
TTITLE7=妹
TTITLE8=レモン・ティー
TTITLE9=ピアニシモ・フォルテ
TTITLE10=紙ひこうき
TTITLE11=青い封筒
EXTD=YEAR: 1975
EXTT0=
EXTT1=
EXTT2=
EXTT3=
EXTT4=
EXTT5=
EXTT6=
EXTT7=
EXTT8=
EXTT9=
EXTT10=
EXTT11=
PLAYORDER=
